<svg xmlns="http://www.w3.org/2000/svg" viewBox="0 0 100 100" width="100" height="100">
  <defs>
    <linearGradient id="gradient" x1="0%" y1="0%" x2="100%" y2="100%">
      <stop offset="0%" stop-color="#4F46E5" />
      <stop offset="100%" stop-color="#7C3AED" />
    </linearGradient>
  </defs>
  <path fill="url(#gradient)" d="M75 65c8.28 0 15-6.72 15-15 0-8.28-6.72-15-15-15-1.05 0-2.07.11-3.06.31C69.08 26.11 60.45 20 50 20c-13.26 0-24 10.74-24 24 0 .41.01.82.03 1.22C16.93 47.49 10 55.35 10 65c0 11.05 8.95 20 20 20h45c8.28 0 15-6.72 15-15 0-8.28-6.72-15-15-15z"/>
</svg> 